<?xml version="1.0" encoding="utf-8"?>
<!-- Generator: Adobe Illustrator 24.1.2, SVG Export Plug-In . SVG Version: 6.00 Build 0)  -->
<svg version="1.1" id="Layer_1" xmlns="http://www.w3.org/2000/svg" xmlns:xlink="http://www.w3.org/1999/xlink" x="0px" y="0px"
	 viewBox="0 0 324.25 459.76" style="enable-background:new 0 0 324.25 459.76;" xml:space="preserve">
<style type="text/css">
	.st0{fill:#FFFFFF;}
</style>
<path class="st0" d="M254.19,19.4c9.87,4.47,13.85,12.13,13.63,22.9c-0.37,17.79-0.08,35.59-0.11,53.39
	c-0.02,13.03-8.29,21.45-21.32,21.59c-11.69,0.12-23.37,0.07-35.06,0.1c-0.66,0-1.33,0-1.99,0.04c-8.1,0.41-10.1,2.31-10.2,10.33
	c-0.12,9.53-0.03,19.05-0.03,29.11c1.85,0,3.39-0.01,4.94,0c14.47,0.13,28.94,0.13,43.4,0.43c9.23,0.19,17.68,8.67,17.78,18.63
	c0.23,21.78,0.24,43.56-0.01,65.34c-0.12,10.44-9.07,18.62-19.97,18.73c-13.81,0.14-27.62,0.04-41.44,0.04c-1.43,0-2.87,0-4.83,0
	c0,2,0,3.67,0,5.35c0,46.48,0.01,92.97-0.01,139.45c-0.01,11.77-5.46,19.53-15.57,22.06c-1.89,0.48-3.94,0.5-5.91,0.5
	c-20.19,0.03-40.39-0.48-60.56,0.19c-13.84,0.46-23.74-8.27-23.63-23.92c0.32-45.95,0.12-91.91,0.12-137.86c0-1.72,0-3.44,0-5.78
	c-1.59,0-2.99,0-4.39,0c-10.76,0-21.52,0.04-32.27-0.01c-12.23-0.05-20.82-7.54-21.03-19.63c-0.38-21.77-0.26-43.56,0.15-65.33
	c0.18-9.72,7.77-17.27,17.57-17.77c11.26-0.58,22.56-0.33,33.84-0.44c1.84-0.02,3.68,0,6.13,0c0-1.72-0.02-3.13,0-4.54
	c0.2-13.01-0.29-26.07,0.74-39.02c3.67-46.02,31.13-82.42,78.64-92.27c2.43-0.5,4.84-1.09,7.26-1.63
	C204.78,19.4,229.49,19.4,254.19,19.4z M241.22,181.11c-1.75,0-3.17,0-4.6,0c-15.8,0-31.6,0.04-47.41-0.02
	c-8.22-0.03-14.33-4.97-14.42-12.81c-0.18-15.65-0.34-31.36,0.81-46.95c1.13-15.32,10.84-25.16,26.19-26.88
	c12.21-1.37,24.61-1.08,36.93-1.51c1.53-0.05,3.07-0.01,4.72-0.01c0-17.01,0-33.41,0-49.82c-0.57-0.19-0.93-0.43-1.29-0.42
	c-18.71,0.2-37.47-0.27-56.13,0.84c-15.91,0.95-30.45,6.82-42.61,17.56c-17.44,15.39-24.45,35.56-25.38,58.05
	c-0.64,15.51-0.17,31.07-0.23,46.6c-0.04,9.87-5.46,15.33-15.24,15.36c-8.9,0.03-17.79,0.01-26.69,0.01c-5.27,0-10.54,0-15.92,0
	c0,18.43,0,36.41,0,54.81c1.66,0,3.09,0,4.52,0c12.88,0,25.76,0.05,38.64-0.02c6.35-0.03,11.18,2.44,13.55,8.42
	c0.94,2.38,1.1,5.19,1.1,7.8c0.06,48.73,0.05,97.47,0.05,146.2c0,1.65,0,3.3,0,4.83c19.33,0,37.97,0,56.81,0c0-2.04,0-3.76,0-5.48
	c0-48.6-0.01-97.2,0-145.81c0-10.83,5.01-15.92,15.75-15.95c15.4-0.04,30.81,0,46.21-0.02c1.52,0,3.04-0.14,4.66-0.21
	C241.22,217.37,241.22,199.6,241.22,181.11z"/>
</svg>
