<?xml version="1.0" encoding="utf-8"?>
<!-- Generator: Adobe Illustrator 24.1.2, SVG Export Plug-In . SVG Version: 6.00 Build 0)  -->
<svg version="1.1" id="Layer_1" xmlns="http://www.w3.org/2000/svg" xmlns:xlink="http://www.w3.org/1999/xlink" x="0px" y="0px"
	 viewBox="0 0 468.32 459.76" style="enable-background:new 0 0 468.32 459.76;" xml:space="preserve">
<style type="text/css">
	.st0{fill:#FFFFFF;}
</style>
<path class="st0" d="M334.53,439.56c-68.68,0-137.37,0-206.05,0c-6.83-1.46-13.84-2.36-20.47-4.47
	c-40.4-12.83-66.35-39.77-77.63-80.66c-1.47-5.33-2.23-10.85-3.32-16.28c0-68.67,0-137.34,0-206.01c1.47-6.85,2.62-13.79,4.45-20.55
	c12.8-47.03,57.54-80.73,107.47-80.83c61.62-0.12,123.24-0.24,184.86,0.17c10.49,0.07,21.25,1.73,31.41,4.45
	c46.98,12.55,80.56,57.34,80.67,107.06c0.14,61.74,0.23,123.48-0.16,185.22c-0.07,10.36-1.4,21.12-4.44,30.99
	c-12.46,40.46-39.62,66.31-80.48,77.57C345.5,437.7,339.97,438.47,334.53,439.56z M411.75,235.13c0-29.27,0.07-58.54-0.06-87.81
	c-0.03-5.96-0.32-11.99-1.26-17.86c-4.71-29.29-20.59-50.71-46.58-64.72c-13.54-7.3-28.22-9.81-43.44-9.81
	c-58.82,0.01-117.63-0.03-176.45,0.06c-6.09,0.01-12.26,0.31-18.26,1.28c-29.13,4.7-50.49,20.49-64.5,46.29
	c-7.34,13.51-9.94,28.17-9.94,43.4c0,58.67-0.04,117.35,0.06,176.02c0.01,6.36,0.23,12.81,1.3,19.05
	c5.56,32.62,24.07,55.12,54.32,68.08c11.29,4.83,23.29,6.24,35.46,6.24c59.22,0.02,118.43,0.04,177.65-0.04
	c5.69-0.01,11.45-0.34,17.07-1.24c29.62-4.75,51.18-20.85,65.16-47.2c7-13.2,9.47-27.51,9.48-42.32
	C411.75,294.74,411.75,264.94,411.75,235.13z"/>
<path class="st0" d="M227.11,123.22c58.35-2.72,110.51,41.15,116,101.06c6.07,66.26-42.91,117.18-100.63,122.46
	c-65.84,6.02-117.05-42.33-122.6-100.52C113.49,179.17,165.39,125.04,227.11,123.22z M319.38,235.21
	c0.03-48.32-39.42-87.86-87.71-87.93c-48.35-0.06-87.94,39.32-88.04,87.6c-0.11,48.51,39.42,88.13,87.91,88.12
	C279.85,323,319.35,283.52,319.38,235.21z"/>
<path class="st0" d="M350.26,150.46c-18.7-0.1-34.5-15.91-34-34.48c0.52-19.25,15.11-33.59,34.23-33.77
	c18.58-0.18,34.22,15.49,33.99,34.01C384.24,135.67,369.46,149.99,350.26,150.46z M360.12,116.4c0.04-5.32-4.54-9.89-9.86-9.84
	c-5.21,0.05-9.52,4.39-9.56,9.65c-0.04,5.37,4.07,9.66,9.38,9.76C355.55,126.08,360.08,121.76,360.12,116.4z"/>
</svg>
