<?xml version="1.0" encoding="utf-8"?>
<!-- Generator: Adobe Illustrator 24.1.2, SVG Export Plug-In . SVG Version: 6.00 Build 0)  -->
<svg version="1.1" id="Layer_1" xmlns="http://www.w3.org/2000/svg" xmlns:xlink="http://www.w3.org/1999/xlink" x="0px" y="0px"
	 viewBox="0 0 468.32 459.76" style="enable-background:new 0 0 468.32 459.76;" xml:space="preserve">
<style type="text/css">
	.st0{fill:#FFFFFF;}
</style>
<g>
	<g>
		<path class="st0" d="M445.41,412.95c-4.05,8.07-10.58,10.68-19.49,10.46c-19.55-0.47-39.11-0.14-58.67-0.15
			c-11.7,0-17.43-5.67-17.43-17.29c-0.01-46.57,0.03-93.13-0.04-139.7c-0.01-4.76-0.35-9.55-0.97-14.27
			c-1.74-13.24-10.39-20.98-21.98-25.53c-17.42-6.84-34.33-1.59-45.08,13.46c-5.45,7.63-7.23,16.42-7.24,25.63
			c-0.01,47.36,0,94.73-0.01,142.09c0,10.34-5.26,15.58-15.73,15.59c-23.68,0.02-47.36,0.02-71.05,0
			c-10.46-0.01-15.55-5.16-15.55-15.68c0-82.49,0-164.98,0-247.47c0-11.22,5.06-16.32,16.22-16.33c20.89-0.02,41.79,0.35,62.66-0.16
			c9.58-0.23,17.53,6.74,16.61,16.85c-0.15,1.67-0.02,3.36-0.02,5.98c2.92-2.74,5.03-4.87,7.29-6.83
			c17.39-15.05,37.79-22.25,60.61-22.8c15.58-0.38,31.12-0.1,46.04,5.33c32.81,11.94,52.9,35.21,61.32,68.86
			c0.98,3.93,1.67,7.94,2.49,11.91C445.41,286.26,445.41,349.61,445.41,412.95z M364.47,409.34c2.04,0,3.36,0,4.69,0
			c19.3,0,38.59-0.1,57.89,0.09c3.87,0.04,4.84-1.1,4.83-4.9c-0.12-56.16,0-112.31-0.19-168.47c-0.02-7.25-0.68-14.69-2.37-21.73
			c-7-29.12-24.46-49.23-52.9-59.42c-13.99-5.01-28.52-4.4-42.99-3.93c-21.02,0.69-38.89,8.78-53.57,23.77
			c-7.53,7.69-14.86,15.59-22.3,23.38c-0.75,0.79-1.66,1.42-2.97,2.53c0-13.33-0.11-25.95,0.07-38.57c0.05-3.48-0.64-4.8-4.53-4.76
			c-19.83,0.22-39.65,0.1-59.48,0.1c-1.27,0-2.54,0-3.75,0c0,84.24,0,167.89,0,251.65c24.79,0,49.34,0,74.36,0c0-1.94,0-3.63,0-5.32
			c0-45.91,0.16-91.82-0.05-137.73c-0.17-37.51,29.12-59.22,57.37-55.83c17.23,2.07,31,9.99,39.52,25.55
			c4.92,8.98,5.69,18.99,5.74,29.02c0.24,46.31,0.43,92.62,0.63,138.93C364.48,405.4,364.47,407.1,364.47,409.34z"/>
		<path class="st0" d="M426.89,426.92c-0.35,0-0.7,0-1.05-0.01c-13.78-0.33-27.82-0.27-41.41-0.2c-5.73,0.03-11.42,0.05-17.18,0.05
			c-13.69,0-20.93-7.19-20.93-20.79l0-37.39c0-33.53,0.01-68.21-0.05-102.31c-0.01-4.5-0.32-9.15-0.94-13.82
			c-1.4-10.62-7.87-18.05-19.79-22.73c-15.75-6.18-31.07-1.61-40.95,12.24c-4.49,6.29-6.58,13.79-6.58,23.6
			c-0.01,31.58-0.01,63.15-0.01,94.73v47.36c0,12.3-6.83,19.08-19.23,19.09c-23.68,0.02-47.37,0.02-71.05,0
			c-12.46-0.01-19.05-6.64-19.05-19.18c0-82.49,0-164.98,0-247.47c0-13.15,6.63-19.82,19.72-19.83c6.38-0.01,12.77,0.02,19.16,0.05
			c14.25,0.07,28.97,0.14,43.42-0.22c5.96-0.15,11.58,2.1,15.38,6.17c3.03,3.24,4.72,7.42,4.87,11.95c0.47-0.43,0.94-0.85,1.42-1.26
			c17.46-15.11,38.59-23.06,62.82-23.65c15.24-0.37,31.44-0.25,47.32,5.54c33.35,12.14,54.72,36.13,63.52,71.3
			c0.69,2.77,1.25,5.59,1.78,8.31c0.25,1.25,0.49,2.5,0.75,3.75l0.07,0.35v191.22l-0.37,0.74
			C444.31,422.96,437.41,426.92,426.89,426.92z M401.24,419.66c8.24,0,16.54,0.06,24.77,0.26c8.08,0.19,12.76-2.08,15.9-7.82V223.28
			c-0.24-1.15-0.46-2.31-0.69-3.47c-0.52-2.63-1.05-5.35-1.7-7.95c-8.31-33.24-27.65-54.97-59.12-66.42
			c-14.74-5.36-30.19-5.47-44.76-5.12c-22.56,0.55-42.21,7.93-58.41,21.95c-1.43,1.24-2.83,2.58-4.45,4.13
			c-0.84,0.81-1.75,1.67-2.74,2.6l-5.9,5.54v-8.09c0-0.88-0.02-1.65-0.03-2.35c-0.03-1.43-0.05-2.66,0.07-3.95
			c0.32-3.54-0.69-6.68-2.94-9.08c-2.44-2.61-6.13-4.04-10.1-3.95c-14.55,0.35-29.33,0.28-43.63,0.22
			c-6.37-0.03-12.75-0.06-19.12-0.05c-9.28,0.01-12.73,3.48-12.73,12.83c0,82.49,0,164.98,0,247.47c0,8.64,3.49,12.17,12.06,12.18
			c23.68,0.02,47.36,0.02,71.04,0c8.57-0.01,12.23-3.62,12.23-12.09V360.3c0-31.58,0-63.15,0.01-94.73
			c0-11.19,2.58-20.24,7.89-27.67c11.7-16.38,30.55-22.01,49.21-14.69c14.3,5.61,22.44,15.15,24.17,28.33
			c0.66,4.97,0.99,9.93,1,14.73c0.05,34.11,0.05,68.78,0.05,102.32l0,37.38c0,9.66,4.17,13.79,13.93,13.79
			c5.72,0.01,11.43-0.03,17.15-0.05C389.95,419.68,395.58,419.66,401.24,419.66z M427.24,412.93c-0.08,0-0.16,0-0.23,0
			c-14.25-0.14-28.75-0.12-42.77-0.1c-5.03,0.01-10.05,0.01-15.08,0.01h-8.19l0-5.59c0-1.28,0-2.41,0-3.53L360.82,369
			c-0.15-34.73-0.3-69.47-0.48-104.2c-0.06-10.7-0.98-19.45-5.31-27.36c-7.51-13.73-19.92-21.72-36.87-23.75
			c-13.14-1.58-26.44,2.67-36.52,11.65c-10.99,9.8-17.01,24.25-16.93,40.69c0.14,32.03,0.11,64.58,0.08,96.07
			c-0.01,13.89-0.03,27.79-0.03,41.68v8.82H183.4V153.94h7.25c5.15,0,10.3,0.01,15.44,0.02c14.42,0.02,29.34,0.04,44-0.11
			c1.92,0,4.37,0.18,6.14,1.96c1.75,1.75,1.96,4.09,1.92,6.35c-0.13,9.09-0.11,18.06-0.09,27.56c0,0.93,0,1.86,0.01,2.8
			c1.63-1.72,3.25-3.44,4.88-5.16c4.69-4.96,9.53-10.08,14.39-15.05c15.44-15.76,34.26-24.11,55.96-24.82l1.04-0.03
			c14.24-0.47,28.97-0.96,43.25,4.16c29.22,10.47,47.77,31.29,55.12,61.9c1.61,6.69,2.44,14.27,2.46,22.53
			c0.11,31.52,0.11,63.57,0.12,94.57c0.01,24.22,0.01,49.27,0.07,73.9c0,2.17-0.23,4.64-2.04,6.43
			C431.6,412.67,429.2,412.93,427.24,412.93z M399.21,405.81c9.26,0,18.61,0.02,27.87,0.12c0.59,0.01,0.99-0.02,1.23-0.06
			c0.04-0.25,0.07-0.67,0.07-1.34c-0.05-24.64-0.06-49.69-0.07-73.92c-0.01-30.99-0.02-63.03-0.12-94.55
			c-0.03-7.72-0.79-14.76-2.27-20.92c-6.77-28.16-23.82-47.32-50.67-56.94c-13.02-4.67-26.45-4.22-40.66-3.76l-1.04,0.03
			c-19.84,0.65-37.06,8.29-51.19,22.72c-4.82,4.92-9.64,10.03-14.31,14.96c-2.65,2.8-5.29,5.6-7.96,8.39
			c-0.65,0.68-1.3,1.21-2.07,1.82c-0.35,0.28-0.74,0.59-1.17,0.96l-5.76,4.88v-7.55c0-3.7-0.01-7.34-0.02-10.94
			c-0.02-9.53-0.04-18.54,0.09-27.68c0.01-0.55-0.01-0.93-0.03-1.18c-0.22-0.02-0.53-0.04-0.96-0.04
			c-14.7,0.16-29.64,0.14-44.09,0.11c-5.14-0.01-10.29-0.02-15.43-0.02h-0.25v244.65h67.36v-1.82c0-13.9,0.01-27.79,0.03-41.69
			c0.03-31.48,0.07-64.02-0.08-96.03c-0.08-18.48,6.76-34.8,19.28-45.95c11.57-10.31,26.89-15.18,42.01-13.37
			c19.32,2.32,33.51,11.52,42.17,27.34c5.33,9.74,6.11,20.5,6.17,30.68c0.18,34.74,0.33,69.47,0.48,104.21l0.15,34.72
			c0,0.71,0,1.41,0,2.15h1.18c5.02,0,10.05-0.01,15.07-0.01C389.18,405.82,394.18,405.81,399.21,405.81z"/>
	</g>
	<g>
		<path class="st0" d="M138.81,283.55c0,39.24-0.26,78.47,0.17,117.7c0.12,11.12-8.86,22.18-22.17,22.05
			c-17.02-0.17-34.05-0.01-51.07-0.05c-13.31-0.03-22.2-8.81-22.5-22.17c-0.1-4.25-0.02-8.51-0.02-12.77
			c0-73.68,0.01-147.37-0.01-221.05c0-8.73,2.18-16.45,10.43-20.88c2.7-1.45,6.01-2.41,9.05-2.44c18.62-0.23,37.24-0.27,55.86-0.07
			c11.5,0.12,20.24,9.26,20.25,20.78C138.83,204.28,138.8,243.92,138.81,283.55z M57.25,283.09c0,39.12-0.01,78.23,0.01,117.35
			c0,6.34,2.33,8.86,8.5,8.88c17.03,0.07,34.06,0.08,51.09-0.01c6.12-0.03,8.34-2.43,8.34-8.58c0.01-77.97,0.01-155.93,0-233.9
			c0-6.7-2.74-9.38-9.49-9.38c-16.36-0.01-32.73-0.01-49.09,0c-7.4,0-9.35,1.97-9.35,9.5C57.24,205.65,57.25,244.37,57.25,283.09z"
			/>
		<path class="st0" d="M117.03,426.8c-0.09,0-0.17,0-0.26,0c-10.43-0.1-21.05-0.08-31.32-0.06c-6.58,0.01-13.16,0.02-19.73,0.01
			c-15.2-0.04-25.64-10.32-25.99-25.59c-0.07-2.98-0.05-5.98-0.03-8.89c0.01-1.32,0.02-2.64,0.02-3.96l0-51.58
			c0-56.49,0-112.98-0.01-169.47c0-11.69,4.01-19.53,12.27-23.97c3.31-1.78,7.19-2.82,10.66-2.86c19.77-0.24,38.07-0.26,55.94-0.07
			c13.28,0.14,23.7,10.8,23.71,24.27c0.03,28.37,0.03,56.73,0.02,85.1l0,33.81c0,10.82-0.02,21.63-0.04,32.45
			c-0.05,27.94-0.1,56.82,0.21,85.22c0.07,6.72-2.67,13.36-7.53,18.23C130.2,424.2,123.84,426.8,117.03,426.8z M98.35,419.73
			c6.15,0,12.34,0.02,18.48,0.08c6.41,0.06,10.7-2.85,13.15-5.3c3.54-3.54,5.54-8.35,5.48-13.2c-0.31-28.44-0.26-57.35-0.21-85.31
			c0.02-10.81,0.04-21.62,0.04-32.44l0-33.81c0-28.36,0.01-56.73-0.02-85.09c-0.01-9.75-7.23-17.18-16.79-17.28
			c-17.82-0.19-36.06-0.17-55.78,0.07c-2.34,0.03-5.12,0.79-7.43,2.03c-5.94,3.19-8.58,8.68-8.58,17.8
			c0.01,56.49,0.01,112.98,0.01,169.47l0,51.58c0,1.33-0.01,2.67-0.02,4c-0.02,2.86-0.03,5.81,0.03,8.69
			c0.26,11.53,7.54,18.72,19.01,18.75c6.57,0.02,13.13,0,19.7-0.01C89.7,419.74,94.01,419.73,98.35,419.73z M91.4,412.87
			c-8.15,0-16.67-0.02-25.65-0.05c-8.07-0.03-11.99-4.08-11.99-12.38c-0.01-28.98-0.01-57.95-0.01-86.93l0-30.42l0-33.19
			c0-27.66,0-55.31,0-82.97c0-9.47,3.49-12.99,12.85-13l6.01,0c14.36,0,28.72-0.01,43.09,0c8.74,0.01,12.99,4.22,12.99,12.88
			c0.01,77.97,0.01,155.93,0,233.9c0,8.09-3.87,12.04-11.82,12.08C108.72,412.85,100.27,412.87,91.4,412.87z M93.35,160.94
			c-6.91,0-13.83,0-20.74,0l-6.01,0c-5.47,0-5.85,0.39-5.85,6c0,27.65,0,55.31,0,82.96l0,33.19l0,30.42c0,28.97,0,57.95,0.01,86.92
			c0,4.69,1.07,5.37,5.02,5.38c18.75,0.07,35.45,0.07,51.06-0.01c4.13-0.02,4.85-0.78,4.85-5.08c0.01-77.97,0.01-155.93,0-233.9
			c0-4.72-1.18-5.88-5.99-5.88C108.25,160.94,100.8,160.94,93.35,160.94z"/>
	</g>
	<g>
		<path class="st0" d="M90.89,130.26c-29.84-0.01-54.27-24.62-54.27-54.67c0-30.3,24.65-54.66,55.25-54.59
			c28.76,0.06,53.91,24.79,53.95,53.04C145.86,105.55,121.71,130.27,90.89,130.26z M131.75,75.83c0.1-22.67-17.83-40.87-40.1-40.84
			C68,35.02,50.49,52.48,50.41,75.56c-0.08,23.92,17.74,40.65,42.63,40.9C111.1,116.64,132.23,99.79,131.75,75.83z"/>
		<path class="st0" d="M90.9,133.76c0,0-0.01,0-0.01,0c-31.86-0.01-57.77-26.1-57.77-58.17c0-15.49,6.03-30.04,16.99-40.97
			c11.07-11.04,25.85-17.12,41.64-17.12c0.05,0,0.09,0,0.13,0c30.56,0.07,57.4,26.49,57.44,56.54c0.02,16.41-6.14,31.63-17.34,42.84
			C121.1,127.76,106.51,133.76,90.9,133.76z M91.74,24.49c-13.92,0-26.95,5.35-36.7,15.07c-9.63,9.61-14.93,22.4-14.93,36.02
			c0,28.21,22.77,51.17,50.77,51.17l0,0c0,0,0.01,0,0.01,0c13.74,0,26.57-5.27,36.13-14.83c9.88-9.89,15.31-23.34,15.29-37.89
			c-0.03-26.34-23.61-49.49-50.45-49.55C91.82,24.49,91.78,24.49,91.74,24.49z M93.33,119.96c-0.11,0-0.21,0-0.32,0
			c-12.97-0.13-24.71-4.58-33.06-12.54c-8.45-8.05-13.08-19.37-13.04-31.87c0.08-25.09,19.31-44.03,44.73-44.06
			c0.02,0,0.03,0,0.05,0c11.6,0,22.49,4.52,30.68,12.74c8.35,8.38,12.92,19.59,12.88,31.57c0.22,11.6-4.27,22.64-12.65,31.11
			C114.49,115.1,103.57,119.96,93.33,119.96z M91.69,38.49c-0.02,0-0.03,0-0.04,0C70.2,38.51,53.98,54.45,53.91,75.57
			c-0.07,21.78,16.04,37.16,39.17,37.39c8.49,0.1,17.65-4.02,24.54-10.97c7.05-7.12,10.82-16.38,10.63-26.08l0-0.09
			c0.05-10.12-3.8-19.58-10.83-26.64C110.55,42.28,101.41,38.49,91.69,38.49z"/>
	</g>
</g>
</svg>
