<?xml version="1.0" encoding="utf-8"?>
<!-- Generator: Adobe Illustrator 24.1.2, SVG Export Plug-In . SVG Version: 6.00 Build 0)  -->
<svg version="1.1" id="Layer_1" xmlns="http://www.w3.org/2000/svg" xmlns:xlink="http://www.w3.org/1999/xlink" x="0px" y="0px"
	 viewBox="0 0 386 318" style="enable-background:new 0 0 386 318;" xml:space="preserve">
<style type="text/css">
	.st0{fill:#FFFFFF;}
</style>
<g>
	<path class="st0" d="M52.59,171.73c14.31-14.55,31.79-21.83,52.44-21.83c20.44,0,37.88,7.23,52.33,21.68s21.68,31.89,21.68,52.33
		c0,20.57-7.19,38.05-21.57,52.44c-14.38,14.38-31.86,21.57-52.44,21.57c-20.23,0-37.61-7.14-52.13-21.42
		c-14.52-14.28-21.78-31.4-21.78-51.35C31.12,204.09,38.28,186.28,52.59,171.73z M82.06,245.94c6.3,6.02,13.95,9.03,22.97,9.03
		c9.02,0,16.67-3.01,22.97-9.03c6.3-6.02,9.44-13.37,9.44-22.04c0-8.53-3.16-15.84-9.5-21.93c-6.33-6.09-13.97-9.13-22.91-9.13
		c-8.94,0-16.58,3.03-22.91,9.08c-6.33,6.05-9.5,13.38-9.5,21.99C72.62,232.58,75.76,239.92,82.06,245.94z"/>
	<path class="st0" d="M31.12,143.87v-36.28c0-2.58,1.66-4.86,4.11-5.65l24.11-7.81c5.56-1.8,5.45-9.7-0.16-11.35L35.39,75.8
		c-2.53-0.74-4.27-3.06-4.27-5.7V32.06c0-4.22,4.28-7.1,8.19-5.5l136.03,55.71c4.91,2.01,4.92,8.96,0.01,10.99L39.33,149.36
		C35.42,150.97,31.12,148.1,31.12,143.87z"/>
	<g>
		<path class="st0" d="M342.64,149.36L206.61,93.27c-4.91-2.02-4.9-8.98,0.01-10.99l136.03-55.71c3.91-1.6,8.19,1.27,8.19,5.5V70.1
			c0,2.64-1.74,4.96-4.27,5.7l-23.79,6.98c-5.61,1.65-5.72,9.55-0.16,11.35l24.11,7.81c2.45,0.79,4.11,3.08,4.11,5.65v36.28
			C350.84,148.1,346.55,150.97,342.64,149.36z"/>
		<path class="st0" d="M269.67,226.65h-26.69c-3.14,0-5.69-2.55-5.69-5.69v-0.99c0-3.14-2.55-5.69-5.69-5.69h-22.98
			c-3.14,0-5.69-2.55-5.69-5.69v-31.55c0-3.14,2.55-5.69,5.69-5.69h86.08c17.76,0,31.56,4.85,41.39,14.54
			c9.83,9.69,14.75,23.31,14.75,40.86c0,16.92-4.46,29.43-13.37,37.53c-8.92,8.1-22.68,12.16-41.29,12.16h-87.56
			c-3.14,0-5.69-2.55-5.69-5.69v-31.55c0-3.14,2.55-5.69,5.69-5.69h84.71c5.64,0,9.55-0.67,11.74-2.01
			c2.18-1.34,3.28-3.74,3.28-7.19c0-6.7-5.01-10.04-15.01-10.04h-12.28c-3.14,0-5.69,2.55-5.69,5.69v0.99
			C275.36,224.11,272.81,226.65,269.67,226.65z"/>
	</g>
</g>
</svg>
