<?xml version="1.0" encoding="utf-8"?>
<!-- Generator: Adobe Illustrator 24.1.2, SVG Export Plug-In . SVG Version: 6.00 Build 0)  -->
<svg version="1.1" id="Layer_1" xmlns="http://www.w3.org/2000/svg" xmlns:xlink="http://www.w3.org/1999/xlink" x="0px" y="0px"
	 viewBox="0 0 538 173" style="enable-background:new 0 0 538 173;" xml:space="preserve">
<style type="text/css">
	.st0{fill:#FFFFFF;}
</style>
<g>
	<path class="st0" d="M211.51,16.15c19.96,0,37.07,7.26,51.35,21.78c14.28,14.52,21.42,31.89,21.42,52.13
		c0,20.58-7.19,38.05-21.57,52.44c-14.38,14.38-31.86,21.57-52.44,21.57c-20.44,0-37.88-7.23-52.33-21.68s-21.68-31.89-21.68-52.33
		c0-20.64,7.28-38.12,21.83-52.44C172.65,23.31,190.46,16.15,211.51,16.15z M210.27,57.65c-8.6,0-15.93,3.17-21.99,9.5
		c-6.06,6.33-9.08,13.97-9.08,22.91c0,8.95,3.04,16.58,9.13,22.91c6.09,6.33,13.4,9.5,21.93,9.5c8.67,0,16.01-3.15,22.04-9.44
		c6.02-6.3,9.03-13.95,9.03-22.97c0-9.01-3.01-16.67-9.03-22.97C226.29,60.8,218.95,57.65,210.27,57.65z"/>
	<path class="st0" d="M405.43,24.36l-56.09,136.03c-2.02,4.91-8.98,4.9-10.99-0.01L282.64,24.34c-1.6-3.91,1.27-8.19,5.5-8.19h38.03
		c2.64,0,4.96,1.74,5.7,4.27l6.98,23.79c1.65,5.61,9.55,5.72,11.35,0.16l7.81-24.11c0.79-2.45,3.08-4.11,5.65-4.11h36.28
		C404.17,16.15,407.04,20.45,405.43,24.36z"/>
	<path class="st0" d="M135.73,24.36L79.64,160.39c-2.02,4.91-8.98,4.9-10.99-0.01L12.94,24.34c-1.6-3.91,1.27-8.19,5.5-8.19h38.03
		c2.64,0,4.96,1.74,5.7,4.27l6.98,23.79c1.65,5.61,9.55,5.72,11.35,0.16l7.81-24.11c0.79-2.45,3.08-4.11,5.65-4.11h36.28
		C134.47,16.15,137.34,20.45,135.73,24.36z"/>
	<path class="st0" d="M465.6,97.33v26.69c0,3.14-2.55,5.69-5.69,5.69h-0.99c-3.14,0-5.69,2.55-5.69,5.69v22.98
		c0,3.14-2.55,5.69-5.69,5.69h-31.55c-3.14,0-5.69-2.55-5.69-5.69V72.29c0-17.76,4.85-31.56,14.54-41.39
		c9.69-9.83,23.31-14.75,40.86-14.75c16.92,0,29.43,4.46,37.53,13.37c8.1,8.92,12.16,22.68,12.16,41.29v87.56
		c0,3.14-2.55,5.69-5.69,5.69h-31.55c-3.14,0-5.69-2.55-5.69-5.69V73.67c0-5.64-0.67-9.55-2.01-11.74
		c-1.34-2.18-3.74-3.28-7.19-3.28c-6.7,0-10.04,5.01-10.04,15.01v12.28c0,3.14,2.55,5.69,5.69,5.69h0.99
		C463.05,91.64,465.6,94.19,465.6,97.33z"/>
</g>
</svg>
